<?xml version="1.0" encoding="iso-8859-1"?>
<!-- Generator: Adobe Illustrator 18.0.0, SVG Export Plug-In . SVG Version: 6.00 Build 0)  -->
<!DOCTYPE svg PUBLIC "-//W3C//DTD SVG 1.1//EN" "http://www.w3.org/Graphics/SVG/1.1/DTD/svg11.dtd">
<svg version="1.1" id="Capa_1" xmlns="http://www.w3.org/2000/svg" xmlns:xlink="http://www.w3.org/1999/xlink" x="0px" y="0px"
	 viewBox="0 0 480 480" style="enable-background:new 0 0 480 480;" xml:space="preserve">
<path d="M401.974,442.304c0,0-0.277-4.23-0.783-11.784c-1.111-16.671-13.587-128.323-26.859-234.417
	c-1.792-14.329-3.275-28.698-4.711-42.594c-7.008-67.866-13.061-126.477-50.133-151.77L316.938,0H163.061l-2.549,1.739
	c-37.072,25.293-43.124,83.905-50.132,151.772c-1.435,13.895-2.919,28.264-4.71,42.591C92.398,302.182,79.921,413.838,78.808,430.52
	c-0.504,7.553-0.783,11.782-0.783,11.782l-0.021,0.657c0,3.077,1.248,5.996,3.514,8.219c4.672,4.583,13.625,6.92,47.746,6.541
	c0.577,1.717,1.562,3.303,2.92,4.636c4.345,4.261,12.381,6.581,40.928,6.581c2.148,0,4.421-0.014,6.81-0.041
	c1.149,3.333,4.275,6.682,11.699,8.251c3.128,0.662,7.292,1.201,12.729,1.648C213.801,479.572,226.462,480,240,480
	c13.538,0,26.199-0.428,35.652-1.206c5.437-0.447,9.6-0.986,12.728-1.648c7.424-1.57,10.55-4.918,11.699-8.251
	c2.388,0.026,4.66,0.041,6.81,0.041c28.542,0,36.584-2.32,40.928-6.581c1.359-1.333,2.343-2.919,2.92-4.636
	c2.389,0.026,4.66,0.04,6.81,0.04c28.547,0,36.591-2.32,40.935-6.581c2.267-2.223,3.515-5.142,3.515-8.219L401.974,442.304z
	 M349.965,437.706l-24.003-281.081l-19.928,1.702l24.729,289.577c-4.672,0.597-13.692,1.173-30.959,0.983l-14.034-263.347
	l-19.971,1.064l14.478,271.696c-17.015,2.196-63.541,2.195-80.555,0l14.479-271.696l-19.972-1.064l-14.034,263.346
	c-17.27,0.189-26.287-0.386-30.958-0.983l24.728-289.577l-19.928-1.702l-24.002,281.081c-17.768,0.208-26.919-0.387-31.596-0.996
	c0.095-1.419,0.203-3.042,0.324-4.859c1.098-16.454,13.519-127.503,26.751-233.267c1.818-14.541,3.313-29.018,4.759-43.019
	C136.591,94.39,142.068,41.327,169.402,20h141.197c27.333,21.327,32.811,74.388,39.129,135.564
	c1.445,14.001,2.94,28.479,4.759,43.021c13.233,105.778,25.653,216.822,26.75,233.268c0.121,1.816,0.229,3.439,0.324,4.857
	C376.883,437.319,367.733,437.915,349.965,437.706z"/>
<g>
</g>
<g>
</g>
<g>
</g>
<g>
</g>
<g>
</g>
<g>
</g>
<g>
</g>
<g>
</g>
<g>
</g>
<g>
</g>
<g>
</g>
<g>
</g>
<g>
</g>
<g>
</g>
<g>
</g>
</svg>
